<svg xmlns="http://www.w3.org/2000/svg" xmlns:xlink="http://www.w3.org/1999/xlink" version="1.1" viewBox="0 0 24 24" x="0px" y="0px"><path fill="#fff" d="M12 22c-5.523 0-10-4.477-10-10s4.477-10 10-10c5.523 0 10 4.477 10 10s-4.477 10-10 10zM12 4c-4.418 0-8 3.582-8 8s3.582 8 8 8c4.418 0 8-3.582 8-8s-3.582-8-8-8zM17 13c-0.552 0-1-0.448-1-1s0.448-1 1-1c0.552 0 1 0.448 1 1s-0.448 1-1 1zM14.83 9.172c-0.182-0.181-0.295-0.432-0.295-0.709 0-0.552 0.448-1 1-1s1 0.448 1 1c0 0.277-0.113 0.528-0.295 0.709-0.181 0.18-0.43 0.291-0.705 0.291s-0.524-0.111-0.705-0.291zM14 16c0 1.105-0.895 2-2 2s-2-0.895-2-2v-0.006h-0.010l0.020-0.069c0.009-0.336 0.104-0.649 0.265-0.918l1.715-5.991 1.72 5.958c0.18 0.287 0.288 0.636 0.29 1.010v0.016zM12 8c-0.552 0-1-0.448-1-1s0.448-1 1-1c0.552 0 1 0.448 1 1s-0.448 1-1 1zM7.76 9.172c-0.182-0.181-0.295-0.432-0.295-0.709 0-0.552 0.448-1 1-1s1 0.448 1 1c0 0.277-0.113 0.528-0.295 0.709-0.181 0.18-0.43 0.291-0.705 0.291s-0.524-0.111-0.705-0.291zM8 12c0 0.552-0.448 1-1 1s-1-0.448-1-1c0-0.552 0.448-1 1-1s1 0.448 1 1z"/></svg>
